<svg width="97" height="97" viewBox="0 0 97 97" fill="none" xmlns="http://www.w3.org/2000/svg">
<path d="M88.7954 74.0837C88.7954 75.5387 88.4721 77.0342 87.785 78.4892C87.0979 79.9442 86.2088 81.3183 85.0367 82.6117C83.0563 84.7942 80.8738 86.3704 78.4083 87.3808C75.9833 88.3912 73.3563 88.9167 70.5271 88.9167C66.4046 88.9167 61.9992 87.9467 57.3513 85.9662C52.7033 83.9858 48.0554 81.3183 43.4479 77.9637C38.7519 74.5287 34.3206 70.7459 30.1913 66.6471C26.1042 62.5327 22.3347 58.1146 18.915 53.4308C15.6008 48.8233 12.9333 44.2158 10.9933 39.6487C9.05334 35.0412 8.08334 30.6358 8.08334 26.4325C8.08334 23.6841 8.56834 21.0571 9.53834 18.6321C10.5083 16.1666 12.0442 13.9033 14.1863 11.8825C16.7729 9.33623 19.6021 8.08331 22.5929 8.08331C23.7246 8.08331 24.8563 8.32581 25.8667 8.81081C26.9175 9.29581 27.8471 10.0233 28.5746 11.0741L37.9513 24.2904C38.6788 25.3008 39.2042 26.2304 39.5679 27.1196C39.9317 27.9683 40.1338 28.8171 40.1338 29.585C40.1338 30.555 39.8508 31.525 39.285 32.4546C38.7596 33.3841 37.9917 34.3541 37.0217 35.3241L33.95 38.5171C33.5054 38.9616 33.3033 39.4871 33.3033 40.1337C33.3033 40.4571 33.3438 40.74 33.4246 41.0633C33.5458 41.3866 33.6671 41.6291 33.7479 41.8716C34.4754 43.2054 35.7283 44.9433 37.5067 47.045C39.3254 49.1467 41.2654 51.2887 43.3671 53.4308C45.5496 55.5729 47.6513 57.5533 49.7933 59.3721C51.895 61.1504 53.6329 62.3629 55.0071 63.0904C55.2092 63.1712 55.4517 63.2925 55.7346 63.4137C56.0579 63.535 56.3813 63.5754 56.745 63.5754C57.4321 63.5754 57.9575 63.3329 58.4021 62.8883L61.4738 59.8571C62.4842 58.8467 63.4542 58.0787 64.3838 57.5937C65.3133 57.0279 66.2429 56.745 67.2533 56.745C68.0213 56.745 68.8296 56.9067 69.7188 57.2704C70.6079 57.6342 71.5375 58.1596 72.5479 58.8467L85.9258 68.3446C86.9767 69.0721 87.7042 69.9208 88.1488 70.9312C88.5529 71.9416 88.7954 72.9521 88.7954 74.0837Z" stroke="#4E6653" stroke-width="5" stroke-miterlimit="10"/>
<path d="M74.7708 36.375C74.7708 33.95 72.8712 30.2316 70.0421 27.2004C67.4554 24.4116 64.02 22.2291 60.625 22.2291M88.9167 36.375C88.9167 20.7337 76.2662 8.08331 60.625 8.08331" stroke="#4E6653" stroke-width="5" stroke-linecap="round" stroke-linejoin="round"/>
</svg>
